<svg width="220" height="80" viewBox="0 0 220 80" fill="none" xmlns="http://www.w3.org/2000/svg">
<path d="M40 80C62.0914 80 80 62.0914 80 40C80 17.9086 62.0914 0 40 0C17.9086 0 0 17.9086 0 40C0 62.0914 17.9086 80 40 80Z" fill="white"/>
<path d="M56.9317 22.6652C56.9317 22.486 56.8869 22.3964 56.8869 22.3068C57.8275 19.888 57.514 19.8432 55.0504 19.9776C52.7212 20.112 50.3919 20.6495 48.1523 21.3662C43.2251 22.9339 38.6114 25.2184 34.2217 27.9955C32.206 29.2945 30.28 30.6831 28.8466 32.6988C28.0403 33.8634 28.1299 35.1624 29.3841 36.0134C31.4894 37.4468 33.729 38.701 35.7895 40.224C37.6708 41.6125 39.5073 43.0907 41.1646 44.748C43.3595 46.9429 43.8074 49.8095 43.4938 52.8106C43.449 53.2586 43.2251 53.6617 43.0011 54.0648C41.6573 56.5284 39.8208 58.5442 37.3124 59.888C36.0582 60.5599 34.8488 61.4557 33.505 61.9933C32.3852 62.4412 31.131 62.6652 29.9664 62.7547C28.8914 62.8443 28.1299 62.1276 27.7716 61.0974C27.1445 59.2609 27.3684 57.4692 28.6674 56.0358C30.7727 53.6618 33.4155 52.1388 36.5062 51.3326C36.6853 51.2878 36.9093 51.2878 37.0885 51.2878C37.1333 51.3774 37.178 51.5116 37.2676 51.6012C36.4166 52.1387 35.6103 52.6315 35.0728 52.9898C34.8936 53.4825 34.8488 53.8858 34.6697 54.0201C33.5498 54.916 32.2956 55.767 31.2206 56.7076C30.4143 57.3795 29.6976 58.1411 29.0258 58.9921C28.3539 59.888 28.6226 60.3806 29.7424 60.515C31.8925 60.739 33.8186 60.0223 35.6999 59.0368C38.2979 57.6484 40.4031 55.7223 42.0157 53.2587C43.1355 51.6013 43.2251 49.3617 42.1053 47.6148C40.3135 44.9272 37.6708 43.2251 35.028 41.5677C32.7883 40.1344 30.3247 39.0145 28.5778 36.8197C27.2788 35.2072 27.2788 33.5498 27.9507 31.8029C28.757 29.7872 30.3247 28.3986 32.0269 27.234C36.7749 23.9194 41.8813 21.2318 47.3908 19.4401C49.5409 18.7234 51.7357 18.0515 53.9306 17.5588C55.4983 17.2004 57.1109 17.2452 58.1411 18.9474C59.2609 20.9182 59.3953 21.6349 56.9317 22.6652Z" fill="#211E1E"/>
<path d="M97.72 48.24C96.7733 48.24 95.92 48.06 95.16 47.7C94.4133 47.34 93.7867 46.8667 93.28 46.28C92.7867 45.6933 92.4333 45.06 92.22 44.38L93.38 43.96C93.7533 44.9733 94.3067 45.7467 95.04 46.28C95.7867 46.8133 96.6733 47.08 97.7 47.08C98.38 47.08 98.9733 46.9667 99.48 46.74C100 46.5133 100.407 46.1933 100.7 45.78C100.993 45.3667 101.14 44.88 101.14 44.32C101.14 43.5467 100.92 42.9467 100.48 42.52C100.053 42.0933 99.4933 41.7867 98.8 41.6L96.08 40.8C94.9733 40.48 94.1533 39.9667 93.62 39.26C93.1 38.54 92.84 37.7267 92.84 36.82C92.84 36.0333 93.0267 35.3467 93.4 34.76C93.7867 34.16 94.3067 33.6933 94.96 33.36C95.6133 33.0267 96.3533 32.86 97.18 32.86C98.0467 32.86 98.82 33.0267 99.5 33.36C100.193 33.68 100.773 34.1067 101.24 34.64C101.72 35.16 102.06 35.74 102.26 36.38L101.12 36.8C100.787 35.88 100.273 35.1867 99.58 34.72C98.8867 34.24 98.0933 34 97.2 34C96.6133 34 96.0867 34.1133 95.62 34.34C95.1533 34.5667 94.7867 34.8867 94.52 35.3C94.2533 35.7133 94.12 36.2 94.12 36.76C94.12 37.44 94.3133 38.02 94.7 38.5C95.0867 38.98 95.7333 39.36 96.64 39.64L99.08 40.36C100.147 40.68 100.967 41.1733 101.54 41.84C102.127 42.4933 102.42 43.3 102.42 44.26C102.42 45.0467 102.22 45.74 101.82 46.34C101.42 46.9267 100.86 47.3933 100.14 47.74C99.4333 48.0733 98.6267 48.24 97.72 48.24ZM105.732 48V33.1H107.032V42.04L106.652 41.86L114.492 33.1H116.172L110.132 39.88L110.192 38.96L116.572 48H114.992L109.612 40.42L107.032 43.34V48H105.732ZM118.798 48V33.1H120.098V48H118.798ZM123.837 48V33.1H124.937L133.957 46.04H133.537V33.1H134.837V48H133.737L124.677 34.98H125.137V48H123.837ZM148.584 48.24C147.557 48.24 146.611 48.0533 145.744 47.68C144.877 47.2933 144.117 46.7533 143.464 46.06C142.824 45.3667 142.324 44.5533 141.964 43.62C141.617 42.6867 141.444 41.66 141.444 40.54C141.444 39.4333 141.617 38.4133 141.964 37.48C142.324 36.5333 142.824 35.72 143.464 35.04C144.117 34.3467 144.877 33.8133 145.744 33.44C146.611 33.0533 147.557 32.86 148.584 32.86C149.584 32.86 150.484 33.04 151.284 33.4C152.084 33.76 152.757 34.22 153.304 34.78C153.851 35.34 154.244 35.92 154.484 36.52L153.264 37.06C152.864 36.1667 152.257 35.4467 151.444 34.9C150.644 34.3533 149.691 34.08 148.584 34.08C147.451 34.08 146.437 34.3533 145.544 34.9C144.664 35.4467 143.977 36.2067 143.484 37.18C142.991 38.14 142.744 39.26 142.744 40.54C142.744 41.82 142.991 42.9467 143.484 43.92C143.977 44.8933 144.664 45.6533 145.544 46.2C146.437 46.7333 147.451 47 148.584 47C149.691 47 150.644 46.7333 151.444 46.2C152.257 45.6533 152.864 44.9333 153.264 44.04L154.484 44.58C154.244 45.1667 153.851 45.74 153.304 46.3C152.757 46.86 152.084 47.3267 151.284 47.7C150.484 48.06 149.584 48.24 148.584 48.24ZM157.587 48V33.1H158.887V46.8H165.587V48H157.587ZM168.232 48V33.1H169.532V48H168.232ZM173.271 48V33.1H174.371L183.391 46.04H182.971V33.1H184.271V48H183.171L174.111 34.98H174.571V48H173.271ZM188.017 48V33.1H189.317V48H188.017ZM199.756 48.24C198.729 48.24 197.782 48.0533 196.916 47.68C196.049 47.2933 195.289 46.7533 194.636 46.06C193.996 45.3667 193.496 44.5533 193.136 43.62C192.789 42.6867 192.616 41.66 192.616 40.54C192.616 39.4333 192.789 38.4133 193.136 37.48C193.496 36.5333 193.996 35.72 194.636 35.04C195.289 34.3467 196.049 33.8133 196.916 33.44C197.782 33.0533 198.729 32.86 199.756 32.86C200.756 32.86 201.656 33.04 202.456 33.4C203.256 33.76 203.929 34.22 204.476 34.78C205.022 35.34 205.416 35.92 205.656 36.52L204.436 37.06C204.036 36.1667 203.429 35.4467 202.616 34.9C201.816 34.3533 200.862 34.08 199.756 34.08C198.622 34.08 197.609 34.3533 196.716 34.9C195.836 35.4467 195.149 36.2067 194.656 37.18C194.162 38.14 193.916 39.26 193.916 40.54C193.916 41.82 194.162 42.9467 194.656 43.92C195.149 44.8933 195.836 45.6533 196.716 46.2C197.609 46.7333 198.622 47 199.756 47C200.862 47 201.816 46.7333 202.616 46.2C203.429 45.6533 204.036 44.9333 204.436 44.04L205.656 44.58C205.416 45.1667 205.022 45.74 204.476 46.3C203.929 46.86 203.256 47.3267 202.456 47.7C201.656 48.06 200.756 48.24 199.756 48.24ZM207.219 48L212.699 33.1H214.039L219.519 48H218.119L216.759 44.2H209.979L208.599 48H207.219ZM210.399 43H216.319L213.119 34.1H213.599L210.399 43Z" fill="white"/>
<path d="M91 51.5H219.839V52.3H91V51.5Z" fill="white"/>
</svg>
