<svg width="7" height="13" viewBox="0 0 7 13" fill="none" xmlns="http://www.w3.org/2000/svg">
<path d="M6.2435 0.950251L4.68737 0.947754C2.93911 0.947754 1.80931 2.10689 1.80931 3.90097V5.2626H0.244687C0.109485 5.2626 0 5.37221 0 5.50741V7.48026C0 7.61546 0.10961 7.72495 0.244687 7.72495H1.80931V12.7031C1.80931 12.8383 1.91879 12.9478 2.05399 12.9478H4.09538C4.23058 12.9478 4.34007 12.8381 4.34007 12.7031V7.72495H6.16947C6.30467 7.72495 6.41416 7.61546 6.41416 7.48026L6.41491 5.50741C6.41491 5.44249 6.38907 5.38032 6.34325 5.33438C6.29743 5.28844 6.23501 5.2626 6.1701 5.2626H4.34007V4.10833C4.34007 3.55354 4.47227 3.2719 5.19497 3.2719L6.24325 3.27153C6.37833 3.27153 6.48781 3.16192 6.48781 3.02684V1.19494C6.48781 1.05999 6.37845 0.9505 6.2435 0.950251Z" fill="white"/>
</svg>
