<svg width="30" height="30" viewBox="0 0 30 30" fill="none" xmlns="http://www.w3.org/2000/svg">
<rect width="30.0003" height="30" rx="15" fill="#211E1E"/>
<path d="M18.2435 9.0025L16.6874 9C14.9391 9 13.8093 10.1591 13.8093 11.9532V13.3148H12.2447C12.1095 13.3148 12 13.4245 12 13.5597V15.5325C12 15.6677 12.1096 15.7772 12.2447 15.7772H13.8093V20.7553C13.8093 20.8905 13.9188 21 14.054 21H16.0954C16.2306 21 16.3401 20.8904 16.3401 20.7553V15.7772H18.1695C18.3047 15.7772 18.4142 15.6677 18.4142 15.5325L18.4149 13.5597C18.4149 13.4947 18.3891 13.4326 18.3432 13.3866C18.2974 13.3407 18.235 13.3148 18.1701 13.3148H16.3401V12.1606C16.3401 11.6058 16.4723 11.3241 17.195 11.3241L18.2433 11.3238C18.3783 11.3238 18.4878 11.2142 18.4878 11.0791V9.24718C18.4878 9.11223 18.3785 9.00275 18.2435 9.0025Z" fill="#FDB1D0"/>
</svg>
