<svg width="30" height="30" viewBox="0 0 30 30" fill="none" xmlns="http://www.w3.org/2000/svg">
<rect x="0.000244141" width="30" height="30" rx="15" fill="#211E1E"/>
<path d="M20.9695 12.5287C20.9414 11.891 20.8383 11.4526 20.6905 11.0726C20.5381 10.6694 20.3037 10.3083 19.9965 10.0082C19.6963 9.7034 19.3329 9.46655 18.9343 9.31653C18.5522 9.1688 18.1161 9.06567 17.4783 9.03755C16.8358 9.00705 16.6319 9 15.0023 9C13.3728 9 13.1688 9.00705 12.5287 9.03517C11.891 9.06329 11.4526 9.16651 11.0727 9.31415C10.6694 9.46655 10.3083 9.70102 10.0082 10.0082C9.7034 10.3083 9.46664 10.6718 9.31653 11.0704C9.1688 11.4526 9.06567 11.8886 9.03755 12.5263C9.00705 13.1688 9 13.3728 9 15.0023C9 16.6319 9.00705 16.8359 9.03517 17.476C9.06329 18.1137 9.16651 18.5521 9.31424 18.932C9.46664 19.3353 9.7034 19.6963 10.0082 19.9965C10.3083 20.3013 10.6718 20.5381 11.0704 20.6882C11.4526 20.8359 11.8886 20.939 12.5264 20.9671C13.1664 20.9953 13.3705 21.0023 15 21.0023C16.6296 21.0023 16.8336 20.9953 17.4737 20.9671C18.1114 20.939 18.5498 20.8359 18.9296 20.6882C19.7363 20.3763 20.374 19.7386 20.6859 18.932C20.8335 18.5498 20.9367 18.1137 20.9648 17.476C20.9929 16.8359 21 16.6319 21 15.0023C21 13.3728 20.9976 13.1688 20.9695 12.5287ZM19.8887 17.4291C19.8628 18.0152 19.7644 18.3318 19.6823 18.5428C19.4806 19.0657 19.0657 19.4807 18.5428 19.6823C18.3318 19.7644 18.0129 19.8629 17.4291 19.8886C16.796 19.9168 16.6061 19.9238 15.0047 19.9238C13.4033 19.9238 13.2111 19.9168 12.5803 19.8886C11.9941 19.8629 11.6776 19.7644 11.4666 19.6823C11.2064 19.5862 10.9695 19.4338 10.7773 19.2345C10.578 19.0398 10.4256 18.8054 10.3294 18.5452C10.2473 18.3342 10.1489 18.0152 10.1231 17.4315C10.0949 16.7984 10.088 16.6084 10.088 15.007C10.088 13.4056 10.0949 13.2133 10.1231 12.5827C10.1489 11.9965 10.2473 11.68 10.3294 11.469C10.4256 11.2087 10.578 10.9719 10.7797 10.7796C10.9742 10.5803 11.2087 10.4279 11.4689 10.3318C11.68 10.2497 11.9989 10.1513 12.5827 10.1254C13.2157 10.0973 13.4057 10.0903 15.007 10.0903C16.6108 10.0903 16.8007 10.0973 17.4314 10.1254C18.0176 10.1513 18.3341 10.2497 18.5452 10.3318C18.8054 10.4279 19.0422 10.5803 19.2345 10.7796C19.4337 10.9742 19.5862 11.2087 19.6823 11.469C19.7644 11.68 19.8628 11.9988 19.8887 12.5827C19.9168 13.2157 19.9238 13.4056 19.9238 15.007C19.9238 16.6084 19.9168 16.796 19.8887 17.4291Z" fill="#FDB1D0"/>
<path d="M15.0024 11.9191C13.3003 11.9191 11.9192 13.3001 11.9192 15.0023C11.9192 16.7046 13.3003 18.0856 15.0024 18.0856C16.7047 18.0856 18.0857 16.7046 18.0857 15.0023C18.0857 13.3001 16.7047 11.9191 15.0024 11.9191ZM15.0024 17.0024C13.8981 17.0024 13.0024 16.1067 13.0024 15.0023C13.0024 13.898 13.8981 13.0023 15.0024 13.0023C16.1068 13.0023 17.0024 13.898 17.0024 15.0023C17.0024 16.1067 16.1068 17.0024 15.0024 17.0024Z" fill="#FDB1D0"/>
<path d="M18.9275 11.7972C18.9275 12.1947 18.6052 12.517 18.2076 12.517C17.8101 12.517 17.4878 12.1947 17.4878 11.7972C17.4878 11.3996 17.8101 11.0774 18.2076 11.0774C18.6052 11.0774 18.9275 11.3996 18.9275 11.7972Z" fill="#FDB1D0"/>
</svg>
