<svg width="30" height="30" viewBox="0 0 30 30" fill="none" xmlns="http://www.w3.org/2000/svg">
<rect x="0.000244141" width="30" height="30" rx="15" fill="#211E1E"/>
<path d="M10.4742 9C11.2742 9 11.9478 9.67368 11.9478 10.4737C11.9478 11.3158 11.232 11.9684 10.4742 11.9474C9.69522 11.9684 9.00048 11.3158 9.00048 10.4737C8.97942 9.65262 9.65312 9 10.4742 9Z" fill="#FDB1D0"/>
<path d="M11.2952 21H9.61099C9.37942 21 9.18994 20.8105 9.18994 20.5789V13.2105C9.18994 12.9789 9.35836 12.7895 9.58993 12.7895H11.2952C11.5268 12.7895 11.7162 12.9789 11.7162 13.2105V20.6C11.7163 20.8105 11.5268 21 11.2952 21Z" fill="#FDB1D0"/>
<path d="M21.19 15.3579C21.19 13.8 20.0321 12.5789 18.4742 12.5789H18.0321C17.19 12.5789 16.3689 12.9789 15.9268 13.6316C15.7795 13.7789 15.7163 13.8421 15.7163 13.8421V13C15.7163 12.9158 15.5899 12.7895 15.5057 12.7895H13.4005C13.3163 12.7895 13.1899 12.8737 13.1899 12.9789V20.8316C13.1899 20.9158 13.3163 21 13.4005 21H15.7163C15.8005 21 15.9268 20.9158 15.9268 20.8316V16.2842C15.9268 15.5052 16.5163 14.8526 17.2952 14.8315C17.6952 14.8315 18.0531 14.9789 18.3268 15.2526C18.5794 15.5052 18.6847 15.8631 18.6847 16.2631V20.7894C18.6847 20.8736 18.811 21 18.8952 21H21.0005C21.0847 21 21.211 20.8736 21.211 20.7894V15.3579H21.19Z" fill="#FDB1D0"/>
</svg>
