<svg width="30" height="30" viewBox="0 0 30 30" fill="none" xmlns="http://www.w3.org/2000/svg">
<rect x="0.000244141" width="30" height="30" rx="15" fill="#211E1E"/>
<path d="M15.2008 9C11.1528 9 9 11.4589 9 14.14C9 15.3834 9.73298 16.934 10.9063 17.4258C11.0845 17.5019 11.1814 17.4695 11.2211 17.3129C11.2562 17.1939 11.4103 16.6207 11.4851 16.3503C11.5082 16.2637 11.4962 16.1885 11.4223 16.1071C11.0328 15.6801 10.7235 14.9021 10.7235 14.1724C10.7235 12.3024 12.2919 10.4867 14.9608 10.4867C17.2686 10.4867 18.8832 11.9078 18.8832 13.9405C18.8832 16.2375 17.601 17.8265 15.9347 17.8265C15.0125 17.8265 14.3256 17.1405 14.5435 16.2917C14.8066 15.281 15.3226 14.1942 15.3226 13.4653C15.3226 12.8117 14.9331 12.2709 14.1373 12.2709C13.1985 12.2709 12.4369 13.1521 12.4369 14.3351C12.4369 15.0868 12.7175 15.5943 12.7175 15.5943C12.7175 15.5943 11.7888 19.1505 11.6162 19.8146C11.3245 20.939 11.6559 22.76 11.6845 22.9166C11.7021 23.0033 11.8045 23.0304 11.8618 22.9595C11.9532 22.8458 13.0757 21.3276 13.3905 20.2303C13.505 19.8304 13.9748 18.2089 13.9748 18.2089C14.2841 18.7383 15.1768 19.182 16.1276 19.182C18.9562 19.182 21 16.8255 21 13.9011C20.9898 11.0975 18.4586 9 15.2008 9Z" fill="#FDB1D0"/>
</svg>
