<svg width="30" height="30" viewBox="0 0 30 30" fill="none" xmlns="http://www.w3.org/2000/svg">
<rect x="0.000244141" width="30" height="30" rx="15" fill="#211E1E"/>
<path d="M23 10.539C22.405 10.8 21.771 10.973 21.11 11.057C21.79 10.651 22.309 10.013 22.553 9.244C21.919 9.622 21.219 9.889 20.473 10.038C19.871 9.397 19.013 9 18.077 9C16.261 9 14.799 10.474 14.799 12.281C14.799 12.541 14.821 12.791 14.875 13.029C12.148 12.896 9.735 11.589 8.114 9.598C7.831 10.089 7.665 10.651 7.665 11.256C7.665 12.392 8.25 13.399 9.122 13.982C8.595 13.972 8.078 13.819 7.64 13.578C7.64 13.588 7.64 13.601 7.64 13.614C7.64 15.208 8.777 16.532 10.268 16.837C10.001 16.91 9.71 16.945 9.408 16.945C9.198 16.945 8.986 16.933 8.787 16.889C9.212 18.188 10.418 19.143 11.852 19.174C10.736 20.047 9.319 20.573 7.785 20.573C7.516 20.573 7.258 20.561 7 20.528C8.453 21.465 10.175 22 12.032 22C18.068 22 21.368 17 21.368 12.666C21.368 12.521 21.363 12.381 21.356 12.242C22.007 11.78 22.554 11.203 23 10.539Z" fill="#FDB1D0"/>
</svg>
