<?xml version="1.0" encoding="utf-8"?><svg xmlns="http://www.w3.org/2000/svg" xmlns:xlink="http://www.w3.org/1999/xlink"><symbol viewBox="0 0 18 18" id="account" xmlns="http://www.w3.org/2000/svg"><path d="M9 .667A8.336 8.336 0 00.667 9c0 4.6 3.733 8.333 8.333 8.333S17.333 13.6 17.333 9 13.6.667 9 .667zm0 2.5c1.383 0 2.5 1.116 2.5 2.5 0 1.383-1.117 2.5-2.5 2.5a2.497 2.497 0 01-2.5-2.5c0-1.384 1.117-2.5 2.5-2.5zM9 15a6 6 0 01-5-2.683c.025-1.659 3.333-2.567 5-2.567 1.658 0 4.975.908 5 2.567A6 6 0 019 15z"/></symbol><symbol viewBox="0 0 15 15" id="search" xmlns="http://www.w3.org/2000/svg"><path d="M10.417 9.167h-.659l-.233-.225a5.393 5.393 0 001.308-3.525 5.416 5.416 0 10-5.416 5.416 5.393 5.393 0 003.525-1.308l.225.233v.659l4.166 4.158 1.242-1.242-4.158-4.166zm-5 0a3.745 3.745 0 01-3.75-3.75 3.745 3.745 0 013.75-3.75 3.745 3.745 0 013.75 3.75 3.745 3.745 0 01-3.75 3.75z"/></symbol><symbol viewBox="0 0 18 18" id="shopping-cart" xmlns="http://www.w3.org/2000/svg"><path d="M5.833 14c-.916 0-1.658.75-1.658 1.667 0 .916.742 1.666 1.658 1.666.917 0 1.667-.75 1.667-1.666C7.5 14.75 6.75 14 5.833 14zM.833.667v1.666H2.5l3 6.325L4.375 10.7a1.612 1.612 0 00-.208.8c0 .917.75 1.667 1.666 1.667h10V11.5h-9.65a.206.206 0 01-.208-.208l.025-.1.75-1.359h6.208c.625 0 1.175-.341 1.459-.858L17.4 3.567a.836.836 0 00-.733-1.233H4.342L3.558.666H.833zM14.167 14c-.917 0-1.659.75-1.659 1.667 0 .916.742 1.666 1.659 1.666.916 0 1.666-.75 1.666-1.666 0-.917-.75-1.667-1.666-1.667z"/></symbol><symbol viewBox="0 0 18 16" id="wishlist" xmlns="http://www.w3.org/2000/svg"><path d="M12.75.5A4.99 4.99 0 009 2.242 4.99 4.99 0 005.25.5C2.683.5.667 2.517.667 5.083c0 3.15 2.833 5.717 7.125 9.617L9 15.792l1.208-1.1c4.292-3.892 7.125-6.459 7.125-9.609C17.333 2.517 15.317.5 12.75.5zM9.083 13.458L9 13.542l-.083-.084C4.95 9.867 2.333 7.492 2.333 5.083c0-1.666 1.25-2.916 2.917-2.916 1.283 0 2.533.825 2.975 1.966h1.558c.434-1.141 1.684-1.966 2.967-1.966 1.667 0 2.917 1.25 2.917 2.916 0 2.409-2.617 4.784-6.584 8.375z"/></symbol></svg>