<?xml version="1.0" encoding="utf-8"?><svg xmlns="http://www.w3.org/2000/svg" xmlns:xlink="http://www.w3.org/1999/xlink"><symbol fill="none" viewBox="0 0 220 80" id="logo-footer" xmlns="http://www.w3.org/2000/svg"><path d="M40 80c22.091 0 40-17.909 40-40S62.091 0 40 0 0 17.909 0 40s17.909 40 40 40z" fill="#fff"/><path d="M56.932 22.665c0-.179-.045-.269-.045-.358.94-2.419.627-2.464-1.837-2.33-2.329.135-4.658.672-6.898 1.39-4.927 1.567-9.54 3.851-13.93 6.628-2.016 1.3-3.942 2.688-5.375 4.704-.807 1.164-.717 2.463.537 3.314 2.105 1.434 4.345 2.688 6.405 4.211 1.882 1.389 3.718 2.867 5.376 4.524 2.194 2.195 2.642 5.062 2.329 8.063-.045.448-.269.85-.493 1.254-1.344 2.463-3.18 4.48-5.689 5.823-1.254.672-2.463 1.568-3.807 2.105-1.12.448-2.374.672-3.539.762-1.075.09-1.836-.627-2.194-1.658-.627-1.836-.404-3.628.895-5.061 2.106-2.374 4.748-3.897 7.84-4.703.178-.045.402-.045.582-.045.044.09.089.224.179.313-.851.538-1.658 1.03-2.195 1.389-.18.492-.224.896-.403 1.03-1.12.896-2.374 1.747-3.45 2.688a15.173 15.173 0 00-2.194 2.284c-.672.896-.403 1.389.716 1.523 2.15.224 4.077-.493 5.958-1.478a17.02 17.02 0 006.316-5.778c1.12-1.658 1.21-3.897.09-5.644-1.793-2.688-4.435-4.39-7.078-6.047-2.24-1.434-4.703-2.553-6.45-4.748-1.3-1.613-1.3-3.27-.627-5.017.806-2.016 2.374-3.404 4.076-4.569 4.748-3.315 9.854-6.002 15.364-7.794 2.15-.717 4.345-1.389 6.54-1.881 1.567-.359 3.18-.314 4.21 1.388 1.12 1.971 1.254 2.688-1.21 3.718z" fill="#211E1E"/><path d="M97.72 48.24c-.947 0-1.8-.18-2.56-.54a5.743 5.743 0 01-1.88-1.42 5.494 5.494 0 01-1.06-1.9l1.16-.42c.373 1.013.927 1.787 1.66 2.32.747.533 1.633.8 2.66.8.68 0 1.273-.113 1.78-.34.52-.227.927-.547 1.22-.96.293-.413.44-.9.44-1.46 0-.773-.22-1.373-.66-1.8-.427-.427-.987-.733-1.68-.92l-2.72-.8c-1.107-.32-1.927-.833-2.46-1.54a4.065 4.065 0 01-.78-2.44c0-.787.187-1.473.56-2.06a3.96 3.96 0 011.56-1.4c.653-.333 1.393-.5 2.22-.5.867 0 1.64.167 2.32.5.693.32 1.273.747 1.74 1.28.48.52.82 1.1 1.02 1.74l-1.14.42c-.333-.92-.847-1.613-1.54-2.08-.693-.48-1.487-.72-2.38-.72a3.57 3.57 0 00-1.58.34 2.662 2.662 0 00-1.1.96c-.267.413-.4.9-.4 1.46 0 .68.193 1.26.58 1.74.387.48 1.033.86 1.94 1.14l2.44.72c1.067.32 1.887.813 2.46 1.48.587.653.88 1.46.88 2.42 0 .787-.2 1.48-.6 2.08-.4.587-.96 1.053-1.68 1.4-.707.333-1.513.5-2.42.5zm8.012-.24V33.1h1.3v8.94l-.38-.18 7.84-8.76h1.68l-6.04 6.78.06-.92 6.38 9.04h-1.58l-5.38-7.58-2.58 2.92V48h-1.3zm13.066 0V33.1h1.3V48h-1.3zm5.039 0V33.1h1.1l9.02 12.94h-.42V33.1h1.3V48h-1.1l-9.06-13.02h.46V48h-1.3zm24.747.24c-1.027 0-1.973-.187-2.84-.56a7.044 7.044 0 01-2.28-1.62 7.574 7.574 0 01-1.5-2.44c-.347-.933-.52-1.96-.52-3.08 0-1.107.173-2.127.52-3.06.36-.947.86-1.76 1.5-2.44a6.792 6.792 0 012.28-1.6c.867-.387 1.813-.58 2.84-.58 1 0 1.9.18 2.7.54.8.36 1.473.82 2.02 1.38.547.56.94 1.14 1.18 1.74l-1.22.54a5.033 5.033 0 00-1.82-2.16c-.8-.547-1.753-.82-2.86-.82-1.133 0-2.147.273-3.04.82-.88.547-1.567 1.307-2.06 2.28-.493.96-.74 2.08-.74 3.36 0 1.28.247 2.407.74 3.38.493.973 1.18 1.733 2.06 2.28.893.533 1.907.8 3.04.8 1.107 0 2.06-.267 2.86-.8a5.033 5.033 0 001.82-2.16l1.22.54c-.24.587-.633 1.16-1.18 1.72-.547.56-1.22 1.027-2.02 1.4-.8.36-1.7.54-2.7.54zm9.003-.24V33.1h1.3v13.7h6.7V48h-8zm10.645 0V33.1h1.3V48h-1.3zm5.039 0V33.1h1.1l9.02 12.94h-.42V33.1h1.3V48h-1.1l-9.06-13.02h.46V48h-1.3zm14.746 0V33.1h1.3V48h-1.3zm11.739.24c-1.027 0-1.974-.187-2.84-.56a7.044 7.044 0 01-2.28-1.62 7.574 7.574 0 01-1.5-2.44c-.347-.933-.52-1.96-.52-3.08 0-1.107.173-2.127.52-3.06.36-.947.86-1.76 1.5-2.44a6.792 6.792 0 012.28-1.6c.866-.387 1.813-.58 2.84-.58 1 0 1.9.18 2.7.54.8.36 1.473.82 2.02 1.38.546.56.94 1.14 1.18 1.74l-1.22.54a5.033 5.033 0 00-1.82-2.16c-.8-.547-1.754-.82-2.86-.82-1.134 0-2.147.273-3.04.82-.88.547-1.567 1.307-2.06 2.28-.494.96-.74 2.08-.74 3.36 0 1.28.246 2.407.74 3.38.493.973 1.18 1.733 2.06 2.28.893.533 1.906.8 3.04.8 1.106 0 2.06-.267 2.86-.8a5.033 5.033 0 001.82-2.16l1.22.54c-.24.587-.634 1.16-1.18 1.72-.547.56-1.22 1.027-2.02 1.4-.8.36-1.7.54-2.7.54zm7.463-.24l5.48-14.9h1.34l5.48 14.9h-1.4l-1.36-3.8h-6.78l-1.38 3.8h-1.38zm3.18-5h5.92l-3.2-8.9h.48l-3.2 8.9zM91 51.5h128.839v.8H91v-.8z" fill="#fff"/></symbol><symbol fill="none" viewBox="0 0 220 80" id="logo-header" xmlns="http://www.w3.org/2000/svg"><path d="M40 80c22.091 0 40-17.909 40-40S62.091 0 40 0 0 17.909 0 40s17.909 40 40 40z" fill="#211E1E"/><path d="M56.932 22.665c0-.179-.045-.269-.045-.358.94-2.419.627-2.464-1.837-2.33-2.329.135-4.658.672-6.898 1.39-4.927 1.567-9.54 3.851-13.93 6.628-2.016 1.3-3.942 2.688-5.375 4.704-.807 1.164-.717 2.463.537 3.314 2.105 1.434 4.345 2.688 6.405 4.211 1.882 1.389 3.718 2.867 5.376 4.524 2.194 2.195 2.642 5.062 2.329 8.063-.045.448-.269.85-.493 1.254-1.344 2.464-3.18 4.48-5.689 5.823-1.254.672-2.463 1.568-3.807 2.105-1.12.448-2.374.672-3.539.762-1.075.09-1.836-.627-2.194-1.658-.627-1.836-.404-3.628.895-5.061 2.106-2.374 4.748-3.897 7.84-4.703.178-.045.402-.045.582-.045.044.09.089.224.179.313-.851.538-1.658 1.03-2.195 1.389-.18.493-.224.896-.403 1.03-1.12.896-2.374 1.747-3.45 2.688a15.172 15.172 0 00-2.194 2.284c-.672.896-.403 1.389.716 1.523 2.15.224 4.077-.493 5.958-1.478a17.022 17.022 0 006.316-5.778c1.12-1.658 1.21-3.897.09-5.644-1.793-2.688-4.435-4.39-7.078-6.047-2.24-1.434-4.703-2.553-6.45-4.748-1.3-1.613-1.3-3.27-.627-5.017.806-2.016 2.374-3.404 4.076-4.569 4.748-3.315 9.854-6.002 15.364-7.794 2.15-.717 4.345-1.389 6.54-1.881 1.567-.359 3.18-.314 4.21 1.388 1.12 1.971 1.254 2.688-1.21 3.718z" fill="#FDB1D0"/><path d="M97.72 48.24c-.947 0-1.8-.18-2.56-.54a5.743 5.743 0 01-1.88-1.42 5.494 5.494 0 01-1.06-1.9l1.16-.42c.373 1.013.927 1.787 1.66 2.32.747.533 1.633.8 2.66.8.68 0 1.273-.113 1.78-.34.52-.227.927-.547 1.22-.96.293-.413.44-.9.44-1.46 0-.773-.22-1.373-.66-1.8-.427-.427-.987-.733-1.68-.92l-2.72-.8c-1.107-.32-1.927-.833-2.46-1.54a4.065 4.065 0 01-.78-2.44c0-.787.187-1.473.56-2.06a3.96 3.96 0 011.56-1.4c.653-.333 1.393-.5 2.22-.5.867 0 1.64.167 2.32.5.693.32 1.273.747 1.74 1.28.48.52.82 1.1 1.02 1.74l-1.14.42c-.333-.92-.847-1.613-1.54-2.08-.693-.48-1.487-.72-2.38-.72a3.57 3.57 0 00-1.58.34 2.662 2.662 0 00-1.1.96c-.267.413-.4.9-.4 1.46 0 .68.193 1.26.58 1.74.387.48 1.033.86 1.94 1.14l2.44.72c1.067.32 1.887.813 2.46 1.48.587.653.88 1.46.88 2.42 0 .787-.2 1.48-.6 2.08-.4.587-.96 1.053-1.68 1.4-.707.333-1.513.5-2.42.5zm8.012-.24V33.1h1.3v8.94l-.38-.18 7.84-8.76h1.68l-6.04 6.78.06-.92 6.38 9.04h-1.58l-5.38-7.58-2.58 2.92V48h-1.3zm13.066 0V33.1h1.3V48h-1.3zm5.039 0V33.1h1.1l9.02 12.94h-.42V33.1h1.3V48h-1.1l-9.06-13.02h.46V48h-1.3zm24.747.24c-1.027 0-1.973-.187-2.84-.56a7.044 7.044 0 01-2.28-1.62 7.574 7.574 0 01-1.5-2.44c-.347-.933-.52-1.96-.52-3.08 0-1.107.173-2.127.52-3.06.36-.947.86-1.76 1.5-2.44a6.792 6.792 0 012.28-1.6c.867-.387 1.813-.58 2.84-.58 1 0 1.9.18 2.7.54.8.36 1.473.82 2.02 1.38.547.56.94 1.14 1.18 1.74l-1.22.54a5.033 5.033 0 00-1.82-2.16c-.8-.547-1.753-.82-2.86-.82-1.133 0-2.147.273-3.04.82-.88.547-1.567 1.307-2.06 2.28-.493.96-.74 2.08-.74 3.36 0 1.28.247 2.407.74 3.38.493.973 1.18 1.733 2.06 2.28.893.533 1.907.8 3.04.8 1.107 0 2.06-.267 2.86-.8a5.033 5.033 0 001.82-2.16l1.22.54c-.24.587-.633 1.16-1.18 1.72-.547.56-1.22 1.027-2.02 1.4-.8.36-1.7.54-2.7.54zm9.003-.24V33.1h1.3v13.7h6.7V48h-8zm10.645 0V33.1h1.3V48h-1.3zm5.039 0V33.1h1.1l9.02 12.94h-.42V33.1h1.3V48h-1.1l-9.06-13.02h.46V48h-1.3zm14.746 0V33.1h1.3V48h-1.3zm11.739.24c-1.027 0-1.974-.187-2.84-.56a7.044 7.044 0 01-2.28-1.62 7.574 7.574 0 01-1.5-2.44c-.347-.933-.52-1.96-.52-3.08 0-1.107.173-2.127.52-3.06.36-.947.86-1.76 1.5-2.44a6.792 6.792 0 012.28-1.6c.866-.387 1.813-.58 2.84-.58 1 0 1.9.18 2.7.54.8.36 1.473.82 2.02 1.38.546.56.94 1.14 1.18 1.74l-1.22.54a5.033 5.033 0 00-1.82-2.16c-.8-.547-1.754-.82-2.86-.82-1.134 0-2.147.273-3.04.82-.88.547-1.567 1.307-2.06 2.28-.494.96-.74 2.08-.74 3.36 0 1.28.246 2.407.74 3.38.493.973 1.18 1.733 2.06 2.28.893.533 1.906.8 3.04.8 1.106 0 2.06-.267 2.86-.8a5.033 5.033 0 001.82-2.16l1.22.54c-.24.587-.634 1.16-1.18 1.72-.547.56-1.22 1.027-2.02 1.4-.8.36-1.7.54-2.7.54zm7.463-.24l5.48-14.9h1.34l5.48 14.9h-1.4l-1.36-3.8h-6.78l-1.38 3.8h-1.38zm3.18-5h5.92l-3.2-8.9h.48l-3.2 8.9zM91 51.5h128.839v.8H91v-.8z" fill="#211E1E"/></symbol></svg>