<?xml version="1.0" encoding="utf-8"?><svg xmlns="http://www.w3.org/2000/svg" xmlns:xlink="http://www.w3.org/1999/xlink"><symbol viewBox="0 0 18 18" id="account" xmlns="http://www.w3.org/2000/svg"><path d="M9 .667A8.336 8.336 0 00.667 9c0 4.6 3.733 8.333 8.333 8.333S17.333 13.6 17.333 9 13.6.667 9 .667zm0 2.5c1.383 0 2.5 1.116 2.5 2.5 0 1.383-1.117 2.5-2.5 2.5a2.497 2.497 0 01-2.5-2.5c0-1.384 1.117-2.5 2.5-2.5zM9 15a6 6 0 01-5-2.683c.025-1.659 3.333-2.567 5-2.567 1.658 0 4.975.908 5 2.567A6 6 0 019 15z"/></symbol><symbol viewBox="0 0 24 24" id="arrow-left" xmlns="http://www.w3.org/2000/svg"><path d="M12 24l2.115-2.115-8.37-8.385H24v-3H5.745l8.37-8.385L12 0 0 12l12 12z"/></symbol><symbol viewBox="0 0 24 24" id="arrow-right" xmlns="http://www.w3.org/2000/svg"><path d="M12 0L9.885 2.115l8.37 8.385H0v3h18.255l-8.37 8.385L12 24l12-12L12 0z"/></symbol><symbol viewBox="0 0 24 24" id="cancel" xmlns="http://www.w3.org/2000/svg"><path d="M6.758 17.243L12.001 12m5.243-5.243L12 12m0 0L6.758 6.757M12.001 12l5.243 5.243"/></symbol><symbol viewBox="0 0 18 18" id="cart" xmlns="http://www.w3.org/2000/svg"><path d="M5.833 14c-.916 0-1.658.75-1.658 1.667 0 .916.742 1.666 1.658 1.666.917 0 1.667-.75 1.667-1.666C7.5 14.75 6.75 14 5.833 14zM.833.667v1.666H2.5l3 6.325L4.375 10.7a1.612 1.612 0 00-.208.8c0 .917.75 1.667 1.666 1.667h10V11.5h-9.65a.206.206 0 01-.208-.208l.025-.1.75-1.359h6.208c.625 0 1.175-.341 1.459-.858L17.4 3.567a.836.836 0 00-.733-1.233H4.342L3.558.666H.833zM14.167 14c-.917 0-1.659.75-1.659 1.667 0 .916.742 1.666 1.659 1.666.916 0 1.666-.75 1.666-1.666 0-.917-.75-1.667-1.666-1.667z"/></symbol><symbol viewBox="0 0 6 10" id="link-arrow-right" xmlns="http://www.w3.org/2000/svg"><path d="M0 1.06L3.901 5 0 8.94 1.05 10 6 5 1.05 0 0 1.06z"/></symbol><symbol viewBox="0 0 19 19" id="logo" xmlns="http://www.w3.org/2000/svg"><path d="M12.789 10.71l-.146-.147h-.364a6.41 6.41 0 001.114-3.617 6.446 6.446 0 10-6.447 6.447 6.41 6.41 0 003.617-1.114v.363l.147.147 4.574 4.565.353.353.354-.353 1.363-1.363.353-.354-.353-.353-4.565-4.574zm-5.843-.147A3.611 3.611 0 013.33 6.946 3.611 3.611 0 016.946 3.33a3.611 3.611 0 013.617 3.616 3.611 3.611 0 01-3.617 3.617z"/></symbol><symbol viewBox="0 0 15 15" id="search" xmlns="http://www.w3.org/2000/svg"><path d="M10.417 9.167h-.659l-.233-.225a5.393 5.393 0 001.308-3.525 5.416 5.416 0 10-5.416 5.416 5.393 5.393 0 003.525-1.308l.225.233v.659l4.166 4.158 1.242-1.242-4.158-4.166zm-5 0a3.745 3.745 0 01-3.75-3.75 3.745 3.745 0 013.75-3.75 3.745 3.745 0 013.75 3.75 3.745 3.745 0 01-3.75 3.75z"/></symbol><symbol viewBox="0 0 7 12" id="socials--facebook" xmlns="http://www.w3.org/2000/svg"><path d="M6.244.002L4.687 0C2.94 0 1.81 1.16 1.81 2.953v1.362H.245A.245.245 0 000 4.56v1.973c0 .135.11.244.245.244h1.564v4.978c0 .135.11.245.245.245h2.041c.136 0 .245-.11.245-.245V6.777h1.83c.135 0 .244-.11.244-.244V4.56a.245.245 0 00-.244-.245H4.34V3.16c0-.555.132-.837.855-.837h1.048c.135 0 .245-.11.245-.245V.247a.245.245 0 00-.245-.245z"/></symbol><symbol viewBox="0 0 14 11" id="socials--gmail" xmlns="http://www.w3.org/2000/svg"><path d="M12.6 0H1.4C.63 0 .007.619.007 1.375L0 9.625C0 10.381.63 11 1.4 11h11.2c.77 0 1.4-.619 1.4-1.375v-8.25C14 .619 13.37 0 12.6 0zm0 2.75L7 6.188 1.4 2.75V1.375L7 4.813l5.6-3.438V2.75z"/></symbol><symbol viewBox="0 0 12 13" id="socials--instagram" xmlns="http://www.w3.org/2000/svg"><path d="M11.97 3.529c-.029-.638-.132-1.076-.28-1.456a2.929 2.929 0 00-.693-1.065A2.953 2.953 0 009.934.317C9.552.169 9.116.066 8.478.037 7.836.008 7.632 0 6.002 0S4.17.007 3.53.035c-.638.028-1.076.132-1.456.28a2.928 2.928 0 00-1.065.693c-.304.3-.541.664-.691 1.062-.148.383-.251.819-.28 1.456C.008 4.17 0 4.373 0 6.002c0 1.63.007 1.834.035 2.474.028.638.132 1.076.28 1.456.152.403.389.764.693 1.064.3.305.664.542 1.063.692.382.148.818.251 1.456.28.64.027.844.034 2.473.034 1.63 0 1.834-.007 2.474-.035.638-.028 1.076-.131 1.456-.279a3.07 3.07 0 001.756-1.756c.148-.382.25-.818.279-1.456.028-.64.035-.844.035-2.474 0-1.63-.002-1.833-.03-2.473zm-1.081 4.9c-.026.586-.124.903-.207 1.114a1.99 1.99 0 01-1.14 1.14c-.21.081-.529.18-1.113.206-.633.028-.823.035-2.424.035-1.602 0-1.794-.007-2.425-.035-.586-.026-.902-.125-1.113-.207a1.846 1.846 0 01-.69-.447c-.199-.195-.351-.43-.447-.69-.083-.21-.181-.53-.207-1.114-.028-.633-.035-.823-.035-2.424s.007-1.794.035-2.424c.026-.587.124-.903.207-1.114.096-.26.248-.497.45-.69.194-.199.429-.351.69-.447.21-.082.529-.18 1.113-.207.633-.028.823-.035 2.424-.035 1.604 0 1.794.007 2.425.035.586.026.902.125 1.113.207.26.096.497.248.69.448.199.194.351.429.447.689.082.211.181.53.207 1.114.028.633.035.823.035 2.424s-.007 1.789-.035 2.422z"/><path d="M6.003 2.92a3.084 3.084 0 10.001 6.167 3.084 3.084 0 00-.001-6.168zm0 5.082a2 2 0 110-4 2 2 0 010 4zM9.928 2.797a.72.72 0 11-1.44 0 .72.72 0 011.44 0z"/></symbol><symbol viewBox="0 0 13 12" id="socials--linkedin" xmlns="http://www.w3.org/2000/svg"><path d="M1.474 0c.8 0 1.474.674 1.474 1.474 0 .842-.716 1.494-1.474 1.473C.695 2.968.001 2.316.001 1.474-.02.653.653 0 1.474 0zM2.295 12H.611a.422.422 0 01-.42-.421V4.211c0-.232.168-.421.4-.421h1.704c.232 0 .421.189.421.42v7.39c0 .21-.189.4-.42.4zM12.19 6.358c0-1.558-1.158-2.78-2.716-2.78h-.442c-.842 0-1.663.4-2.105 1.053l-.21.211V4c0-.084-.127-.21-.211-.21H4.4c-.085 0-.211.084-.211.189v7.852c0 .085.126.169.21.169h2.316c.085 0 .21-.084.21-.168V7.284c0-.779.59-1.431 1.37-1.453.4 0 .757.148 1.03.422.253.252.359.61.359 1.01v4.526c0 .085.126.21.21.21h2.106c.084 0 .21-.125.21-.21V6.358h-.021z"/></symbol><symbol viewBox="0 0 12 14" id="socials--pinterest" xmlns="http://www.w3.org/2000/svg"><path d="M6.2 0C2.154 0 0 2.459 0 5.14c0 1.243.733 2.794 1.906 3.286.178.076.275.044.315-.113.035-.12.19-.692.264-.963.023-.086.011-.162-.063-.243-.39-.427-.698-1.205-.698-1.935 0-1.87 1.568-3.685 4.237-3.685 2.308 0 3.922 1.42 3.922 3.453 0 2.297-1.282 3.887-2.948 3.887-.923 0-1.61-.687-1.391-1.535.263-1.011.779-2.098.779-2.827 0-.653-.39-1.194-1.186-1.194-.939 0-1.7.881-1.7 2.064 0 .752.28 1.26.28 1.26s-.928 3.555-1.1 4.22c-.293 1.124.039 2.945.068 3.102.017.086.12.113.177.043.091-.114 1.214-1.632 1.528-2.73l.585-2.021c.31.53 1.202.973 2.153.973 2.828 0 4.872-2.357 4.872-5.28C11.99 2.096 9.459 0 6.2 0z"/></symbol><symbol viewBox="0 0 16 13" id="socials--twitter" xmlns="http://www.w3.org/2000/svg"><path d="M16 1.539a6.839 6.839 0 01-1.89.518A3.262 3.262 0 0015.553.244a6.555 6.555 0 01-2.08.794 3.28 3.28 0 00-5.674 2.243c0 .26.022.51.076.748A9.284 9.284 0 011.114.598a3.285 3.285 0 001.008 4.384A3.24 3.24 0 01.64 4.578v.036a3.295 3.295 0 002.628 3.223 3.274 3.274 0 01-.86.108 2.9 2.9 0 01-.621-.056 3.311 3.311 0 003.065 2.285 6.59 6.59 0 01-4.067 1.399c-.269 0-.527-.012-.785-.045A9.234 9.234 0 005.032 13c6.036 0 9.336-5 9.336-9.334 0-.145-.005-.285-.012-.424A6.544 6.544 0 0016 1.539z"/></symbol><symbol viewBox="0 0 15 15" id="toggler-closed" xmlns="http://www.w3.org/2000/svg"><path fill-rule="evenodd" clip-rule="evenodd" d="M11.782 4.032a.575.575 0 10-.813-.814L7.5 6.687 4.032 3.218a.575.575 0 00-.814.814L6.687 7.5l-3.469 3.468a.575.575 0 00.814.814L7.5 8.313l3.469 3.469a.575.575 0 00.813-.814L8.313 7.5l3.469-3.468z"/></symbol><symbol viewBox="0 0 24 24" id="toggler-open" xmlns="http://www.w3.org/2000/svg"><path d="M3.5 7a.5.5 0 010-1h17a.5.5 0 110 1h-17zm0 5a.5.5 0 110-1h17a.5.5 0 110 1h-17zm0 5a.5.5 0 110-1h17a.5.5 0 110 1h-17z"/></symbol><symbol viewBox="0 0 18 16" id="wishlist" xmlns="http://www.w3.org/2000/svg"><path d="M12.75.5A4.99 4.99 0 009 2.242 4.99 4.99 0 005.25.5C2.683.5.667 2.517.667 5.083c0 3.15 2.833 5.717 7.125 9.617L9 15.792l1.208-1.1c4.292-3.892 7.125-6.459 7.125-9.609C17.333 2.517 15.317.5 12.75.5zM9.083 13.458L9 13.542l-.083-.084C4.95 9.867 2.333 7.492 2.333 5.083c0-1.666 1.25-2.916 2.917-2.916 1.283 0 2.533.825 2.975 1.966h1.558c.434-1.141 1.684-1.966 2.967-1.966 1.667 0 2.917 1.25 2.917 2.916 0 2.409-2.617 4.784-6.584 8.375z"/></symbol></svg>