<?xml version="1.0" encoding="utf-8"?><svg xmlns="http://www.w3.org/2000/svg" xmlns:xlink="http://www.w3.org/1999/xlink"><symbol fill="none" viewBox="0 0 220 80" id="logo-footer" xmlns="http://www.w3.org/2000/svg"><path d="M40 80c22.091 0 40-17.909 40-40S62.091 0 40 0 0 17.909 0 40s17.909 40 40 40z" fill="#fff"/><path d="M56.932 22.665c0-.179-.045-.269-.045-.358.94-2.419.627-2.464-1.837-2.33-2.329.135-4.658.672-6.898 1.39-4.927 1.567-9.54 3.851-13.93 6.628-2.016 1.3-3.942 2.688-5.375 4.704-.807 1.164-.717 2.463.537 3.314 2.105 1.434 4.345 2.688 6.405 4.211 1.882 1.389 3.718 2.867 5.376 4.524 2.194 2.195 2.642 5.062 2.329 8.063-.045.448-.269.85-.493 1.254-1.344 2.463-3.18 4.48-5.689 5.823-1.254.672-2.463 1.568-3.807 2.105-1.12.448-2.374.672-3.539.762-1.075.09-1.836-.627-2.194-1.658-.627-1.836-.404-3.628.895-5.061 2.106-2.374 4.748-3.897 7.84-4.703.178-.045.402-.045.582-.045.044.09.089.224.179.313-.851.538-1.658 1.03-2.195 1.389-.18.492-.224.896-.403 1.03-1.12.896-2.374 1.747-3.45 2.688a15.173 15.173 0 00-2.194 2.284c-.672.896-.403 1.389.716 1.523 2.15.224 4.077-.493 5.958-1.478a17.02 17.02 0 006.316-5.778c1.12-1.658 1.21-3.897.09-5.644-1.793-2.688-4.435-4.39-7.078-6.047-2.24-1.434-4.703-2.553-6.45-4.748-1.3-1.613-1.3-3.27-.627-5.017.806-2.016 2.374-3.404 4.076-4.569 4.748-3.315 9.854-6.002 15.364-7.794 2.15-.717 4.345-1.389 6.54-1.881 1.567-.359 3.18-.314 4.21 1.388 1.12 1.971 1.254 2.688-1.21 3.718z" fill="#211E1E"/><path d="M97.72 48.24c-.947 0-1.8-.18-2.56-.54a5.743 5.743 0 01-1.88-1.42 5.494 5.494 0 01-1.06-1.9l1.16-.42c.373 1.013.927 1.787 1.66 2.32.747.533 1.633.8 2.66.8.68 0 1.273-.113 1.78-.34.52-.227.927-.547 1.22-.96.293-.413.44-.9.44-1.46 0-.773-.22-1.373-.66-1.8-.427-.427-.987-.733-1.68-.92l-2.72-.8c-1.107-.32-1.927-.833-2.46-1.54a4.065 4.065 0 01-.78-2.44c0-.787.187-1.473.56-2.06a3.96 3.96 0 011.56-1.4c.653-.333 1.393-.5 2.22-.5.867 0 1.64.167 2.32.5.693.32 1.273.747 1.74 1.28.48.52.82 1.1 1.02 1.74l-1.14.42c-.333-.92-.847-1.613-1.54-2.08-.693-.48-1.487-.72-2.38-.72a3.57 3.57 0 00-1.58.34 2.662 2.662 0 00-1.1.96c-.267.413-.4.9-.4 1.46 0 .68.193 1.26.58 1.74.387.48 1.033.86 1.94 1.14l2.44.72c1.067.32 1.887.813 2.46 1.48.587.653.88 1.46.88 2.42 0 .787-.2 1.48-.6 2.08-.4.587-.96 1.053-1.68 1.4-.707.333-1.513.5-2.42.5zm8.012-.24V33.1h1.3v8.94l-.38-.18 7.84-8.76h1.68l-6.04 6.78.06-.92 6.38 9.04h-1.58l-5.38-7.58-2.58 2.92V48h-1.3zm13.066 0V33.1h1.3V48h-1.3zm5.039 0V33.1h1.1l9.02 12.94h-.42V33.1h1.3V48h-1.1l-9.06-13.02h.46V48h-1.3zm24.747.24c-1.027 0-1.973-.187-2.84-.56a7.044 7.044 0 01-2.28-1.62 7.574 7.574 0 01-1.5-2.44c-.347-.933-.52-1.96-.52-3.08 0-1.107.173-2.127.52-3.06.36-.947.86-1.76 1.5-2.44a6.792 6.792 0 012.28-1.6c.867-.387 1.813-.58 2.84-.58 1 0 1.9.18 2.7.54.8.36 1.473.82 2.02 1.38.547.56.94 1.14 1.18 1.74l-1.22.54a5.033 5.033 0 00-1.82-2.16c-.8-.547-1.753-.82-2.86-.82-1.133 0-2.147.273-3.04.82-.88.547-1.567 1.307-2.06 2.28-.493.96-.74 2.08-.74 3.36 0 1.28.247 2.407.74 3.38.493.973 1.18 1.733 2.06 2.28.893.533 1.907.8 3.04.8 1.107 0 2.06-.267 2.86-.8a5.033 5.033 0 001.82-2.16l1.22.54c-.24.587-.633 1.16-1.18 1.72-.547.56-1.22 1.027-2.02 1.4-.8.36-1.7.54-2.7.54zm9.003-.24V33.1h1.3v13.7h6.7V48h-8zm10.645 0V33.1h1.3V48h-1.3zm5.039 0V33.1h1.1l9.02 12.94h-.42V33.1h1.3V48h-1.1l-9.06-13.02h.46V48h-1.3zm14.746 0V33.1h1.3V48h-1.3zm11.739.24c-1.027 0-1.974-.187-2.84-.56a7.044 7.044 0 01-2.28-1.62 7.574 7.574 0 01-1.5-2.44c-.347-.933-.52-1.96-.52-3.08 0-1.107.173-2.127.52-3.06.36-.947.86-1.76 1.5-2.44a6.792 6.792 0 012.28-1.6c.866-.387 1.813-.58 2.84-.58 1 0 1.9.18 2.7.54.8.36 1.473.82 2.02 1.38.546.56.94 1.14 1.18 1.74l-1.22.54a5.033 5.033 0 00-1.82-2.16c-.8-.547-1.754-.82-2.86-.82-1.134 0-2.147.273-3.04.82-.88.547-1.567 1.307-2.06 2.28-.494.96-.74 2.08-.74 3.36 0 1.28.246 2.407.74 3.38.493.973 1.18 1.733 2.06 2.28.893.533 1.906.8 3.04.8 1.106 0 2.06-.267 2.86-.8a5.033 5.033 0 001.82-2.16l1.22.54c-.24.587-.634 1.16-1.18 1.72-.547.56-1.22 1.027-2.02 1.4-.8.36-1.7.54-2.7.54zm7.463-.24l5.48-14.9h1.34l5.48 14.9h-1.4l-1.36-3.8h-6.78l-1.38 3.8h-1.38zm3.18-5h5.92l-3.2-8.9h.48l-3.2 8.9zM91 51.5h128.839v.8H91v-.8z" fill="#fff"/></symbol><symbol fill="none" viewBox="0 0 220 80" id="logo-header" xmlns="http://www.w3.org/2000/svg"><path d="M40 80c22.091 0 40-17.909 40-40S62.091 0 40 0 0 17.909 0 40s17.909 40 40 40z" fill="#211E1E"/><path d="M56.932 22.665c0-.179-.045-.269-.045-.358.94-2.419.627-2.464-1.837-2.33-2.329.135-4.658.672-6.898 1.39-4.927 1.567-9.54 3.851-13.93 6.628-2.016 1.3-3.942 2.688-5.375 4.704-.807 1.164-.717 2.463.537 3.314 2.105 1.434 4.345 2.688 6.405 4.211 1.882 1.389 3.718 2.867 5.376 4.524 2.194 2.195 2.642 5.062 2.329 8.063-.045.448-.269.85-.493 1.254-1.344 2.464-3.18 4.48-5.689 5.823-1.254.672-2.463 1.568-3.807 2.105-1.12.448-2.374.672-3.539.762-1.075.09-1.836-.627-2.194-1.658-.627-1.836-.404-3.628.895-5.061 2.106-2.374 4.748-3.897 7.84-4.703.178-.045.402-.045.582-.045.044.09.089.224.179.313-.851.538-1.658 1.03-2.195 1.389-.18.493-.224.896-.403 1.03-1.12.896-2.374 1.747-3.45 2.688a15.172 15.172 0 00-2.194 2.284c-.672.896-.403 1.389.716 1.523 2.15.224 4.077-.493 5.958-1.478a17.022 17.022 0 006.316-5.778c1.12-1.658 1.21-3.897.09-5.644-1.793-2.688-4.435-4.39-7.078-6.047-2.24-1.434-4.703-2.553-6.45-4.748-1.3-1.613-1.3-3.27-.627-5.017.806-2.016 2.374-3.404 4.076-4.569 4.748-3.315 9.854-6.002 15.364-7.794 2.15-.717 4.345-1.389 6.54-1.881 1.567-.359 3.18-.314 4.21 1.388 1.12 1.971 1.254 2.688-1.21 3.718z" fill="#FDB1D0"/><path d="M97.72 48.24c-.947 0-1.8-.18-2.56-.54a5.743 5.743 0 01-1.88-1.42 5.494 5.494 0 01-1.06-1.9l1.16-.42c.373 1.013.927 1.787 1.66 2.32.747.533 1.633.8 2.66.8.68 0 1.273-.113 1.78-.34.52-.227.927-.547 1.22-.96.293-.413.44-.9.44-1.46 0-.773-.22-1.373-.66-1.8-.427-.427-.987-.733-1.68-.92l-2.72-.8c-1.107-.32-1.927-.833-2.46-1.54a4.065 4.065 0 01-.78-2.44c0-.787.187-1.473.56-2.06a3.96 3.96 0 011.56-1.4c.653-.333 1.393-.5 2.22-.5.867 0 1.64.167 2.32.5.693.32 1.273.747 1.74 1.28.48.52.82 1.1 1.02 1.74l-1.14.42c-.333-.92-.847-1.613-1.54-2.08-.693-.48-1.487-.72-2.38-.72a3.57 3.57 0 00-1.58.34 2.662 2.662 0 00-1.1.96c-.267.413-.4.9-.4 1.46 0 .68.193 1.26.58 1.74.387.48 1.033.86 1.94 1.14l2.44.72c1.067.32 1.887.813 2.46 1.48.587.653.88 1.46.88 2.42 0 .787-.2 1.48-.6 2.08-.4.587-.96 1.053-1.68 1.4-.707.333-1.513.5-2.42.5zm8.012-.24V33.1h1.3v8.94l-.38-.18 7.84-8.76h1.68l-6.04 6.78.06-.92 6.38 9.04h-1.58l-5.38-7.58-2.58 2.92V48h-1.3zm13.066 0V33.1h1.3V48h-1.3zm5.039 0V33.1h1.1l9.02 12.94h-.42V33.1h1.3V48h-1.1l-9.06-13.02h.46V48h-1.3zm24.747.24c-1.027 0-1.973-.187-2.84-.56a7.044 7.044 0 01-2.28-1.62 7.574 7.574 0 01-1.5-2.44c-.347-.933-.52-1.96-.52-3.08 0-1.107.173-2.127.52-3.06.36-.947.86-1.76 1.5-2.44a6.792 6.792 0 012.28-1.6c.867-.387 1.813-.58 2.84-.58 1 0 1.9.18 2.7.54.8.36 1.473.82 2.02 1.38.547.56.94 1.14 1.18 1.74l-1.22.54a5.033 5.033 0 00-1.82-2.16c-.8-.547-1.753-.82-2.86-.82-1.133 0-2.147.273-3.04.82-.88.547-1.567 1.307-2.06 2.28-.493.96-.74 2.08-.74 3.36 0 1.28.247 2.407.74 3.38.493.973 1.18 1.733 2.06 2.28.893.533 1.907.8 3.04.8 1.107 0 2.06-.267 2.86-.8a5.033 5.033 0 001.82-2.16l1.22.54c-.24.587-.633 1.16-1.18 1.72-.547.56-1.22 1.027-2.02 1.4-.8.36-1.7.54-2.7.54zm9.003-.24V33.1h1.3v13.7h6.7V48h-8zm10.645 0V33.1h1.3V48h-1.3zm5.039 0V33.1h1.1l9.02 12.94h-.42V33.1h1.3V48h-1.1l-9.06-13.02h.46V48h-1.3zm14.746 0V33.1h1.3V48h-1.3zm11.739.24c-1.027 0-1.974-.187-2.84-.56a7.044 7.044 0 01-2.28-1.62 7.574 7.574 0 01-1.5-2.44c-.347-.933-.52-1.96-.52-3.08 0-1.107.173-2.127.52-3.06.36-.947.86-1.76 1.5-2.44a6.792 6.792 0 012.28-1.6c.866-.387 1.813-.58 2.84-.58 1 0 1.9.18 2.7.54.8.36 1.473.82 2.02 1.38.546.56.94 1.14 1.18 1.74l-1.22.54a5.033 5.033 0 00-1.82-2.16c-.8-.547-1.754-.82-2.86-.82-1.134 0-2.147.273-3.04.82-.88.547-1.567 1.307-2.06 2.28-.494.96-.74 2.08-.74 3.36 0 1.28.246 2.407.74 3.38.493.973 1.18 1.733 2.06 2.28.893.533 1.906.8 3.04.8 1.106 0 2.06-.267 2.86-.8a5.033 5.033 0 001.82-2.16l1.22.54c-.24.587-.634 1.16-1.18 1.72-.547.56-1.22 1.027-2.02 1.4-.8.36-1.7.54-2.7.54zm7.463-.24l5.48-14.9h1.34l5.48 14.9h-1.4l-1.36-3.8h-6.78l-1.38 3.8h-1.38zm3.18-5h5.92l-3.2-8.9h.48l-3.2 8.9zM91 51.5h128.839v.8H91v-.8z" fill="#211E1E"/></symbol><symbol fill="none" viewBox="0 0 30 30" id="socials--facebook" xmlns="http://www.w3.org/2000/svg"><rect width="30" height="30" rx="15" fill="#211E1E"/><path d="M18.244 9.002L16.687 9c-1.748 0-2.878 1.16-2.878 2.953v1.362h-1.564a.245.245 0 00-.245.245v1.973c0 .135.11.244.245.244h1.564v4.978c0 .136.11.245.245.245h2.041c.136 0 .245-.11.245-.245v-4.978h1.83c.135 0 .244-.11.244-.244V13.56a.245.245 0 00-.244-.245h-1.83V12.16c0-.555.132-.837.855-.837h1.048c.135 0 .245-.11.245-.245V9.247a.245.245 0 00-.244-.245z" fill="#FDB1D0"/></symbol><symbol fill="none" viewBox="0 0 30 30" id="socials--gmail" xmlns="http://www.w3.org/2000/svg"><rect width="30" height="30" rx="15" fill="#211E1E"/><path d="M20.6 10H9.4c-.77 0-1.393.619-1.393 1.375L8 19.625C8 20.381 8.63 21 9.4 21h11.2c.77 0 1.4-.619 1.4-1.375v-8.25c0-.756-.63-1.375-1.4-1.375zm0 2.75L15 16.188 9.4 12.75v-1.375l5.6 3.438 5.6-3.438v1.375z" fill="#FDB1D0"/></symbol><symbol fill="none" viewBox="0 0 30 30" id="socials--instagram" xmlns="http://www.w3.org/2000/svg"><rect width="30" height="30" rx="15" fill="#211E1E"/><path d="M20.97 12.529c-.029-.638-.132-1.076-.28-1.456a2.929 2.929 0 00-.694-1.065 2.955 2.955 0 00-1.062-.691c-.382-.148-.818-.251-1.456-.28-.642-.03-.846-.037-2.476-.037s-1.833.007-2.473.035c-.638.028-1.076.132-1.456.28a2.929 2.929 0 00-1.065.693c-.305.3-.541.664-.691 1.062-.148.383-.251.819-.28 1.456-.03.643-.037.847-.037 2.476 0 1.63.007 1.834.035 2.474.028.638.132 1.076.28 1.456.152.403.388.764.693 1.065.3.304.664.541 1.062.691.383.148.819.251 1.456.28.64.027.845.034 2.474.034 1.63 0 1.834-.007 2.474-.035.637-.028 1.076-.131 1.456-.279a3.07 3.07 0 001.756-1.756c.148-.382.25-.818.279-1.456.028-.64.035-.844.035-2.474 0-1.63-.002-1.833-.03-2.473zm-1.081 4.9c-.026.586-.125.903-.207 1.114a1.99 1.99 0 01-1.14 1.14c-.21.081-.53.18-1.113.206-.633.028-.823.035-2.424.035-1.602 0-1.794-.007-2.425-.035-.586-.026-.902-.125-1.113-.207a1.846 1.846 0 01-.69-.447c-.199-.195-.351-.43-.448-.69-.082-.21-.18-.53-.206-1.114-.028-.633-.035-.823-.035-2.424s.007-1.794.035-2.424c.026-.587.124-.903.206-1.114.097-.26.249-.497.45-.69.195-.199.43-.351.69-.447.211-.082.53-.18 1.114-.207.633-.028.823-.035 2.424-.035 1.604 0 1.794.007 2.424.035.587.026.903.125 1.114.207.26.096.497.248.69.448.199.194.351.429.447.689.082.211.18.53.207 1.114.028.633.035.823.035 2.424s-.007 1.789-.035 2.422z" fill="#FDB1D0"/><path d="M15.002 11.92a3.084 3.084 0 10.002 6.167 3.084 3.084 0 00-.002-6.168zm0 5.082a2 2 0 11.001-4 2 2 0 010 4zM18.927 11.797a.72.72 0 11-1.44 0 .72.72 0 011.44 0z" fill="#FDB1D0"/></symbol><symbol fill="none" viewBox="0 0 30 30" id="socials--linkedin" xmlns="http://www.w3.org/2000/svg"><rect width="30" height="30" rx="15" fill="#211E1E"/><path d="M10.474 9c.8 0 1.474.674 1.474 1.474 0 .842-.716 1.494-1.474 1.473C9.695 11.968 9 11.316 9 10.474 8.98 9.653 9.653 9 10.474 9zM11.295 21H9.611a.422.422 0 01-.421-.421V13.21c0-.231.168-.42.4-.42h1.705c.232 0 .421.189.421.42v7.39c0 .21-.19.4-.42.4zM21.19 15.358c0-1.558-1.158-2.78-2.716-2.78h-.442c-.842 0-1.663.4-2.105 1.054l-.21.21V13c0-.084-.127-.21-.211-.21H13.4c-.084 0-.21.084-.21.189v7.853c0 .084.126.168.21.168h2.316c.085 0 .21-.084.21-.168v-4.548c0-.779.59-1.431 1.37-1.452.4 0 .757.147 1.03.42.253.253.359.611.359 1.011v4.526c0 .085.126.211.21.211H21c.085 0 .211-.126.211-.21v-5.432h-.021z" fill="#FDB1D0"/></symbol><symbol fill="none" viewBox="0 0 30 30" id="socials--pinterest" xmlns="http://www.w3.org/2000/svg"><rect width="30" height="30" rx="15" fill="#211E1E"/><path d="M15.2 9C11.154 9 9 11.459 9 14.14c0 1.243.733 2.794 1.906 3.286.178.076.275.044.315-.113.035-.12.19-.692.264-.963.023-.086.011-.162-.063-.243-.39-.427-.699-1.205-.699-1.935 0-1.87 1.569-3.685 4.238-3.685 2.308 0 3.922 1.42 3.922 3.454 0 2.296-1.282 3.885-2.948 3.885-.923 0-1.61-.686-1.392-1.534.264-1.011.78-2.098.78-2.827 0-.653-.39-1.194-1.186-1.194-.939 0-1.7.881-1.7 2.064 0 .752.28 1.26.28 1.26s-.928 3.556-1.1 4.22c-.293 1.124.039 2.945.067 3.102.018.086.12.113.178.042.091-.113 1.214-1.631 1.528-2.729l.585-2.021c.31.53 1.202.973 2.153.973 2.828 0 4.872-2.356 4.872-5.28C20.99 11.097 18.459 9 15.2 9z" fill="#FDB1D0"/></symbol><symbol fill="none" viewBox="0 0 30 30" id="socials--twitter" xmlns="http://www.w3.org/2000/svg"><rect width="30" height="30" rx="15" fill="#211E1E"/><path d="M23 10.539a6.839 6.839 0 01-1.89.518 3.262 3.262 0 001.443-1.813 6.555 6.555 0 01-2.08.794 3.28 3.28 0 00-5.674 2.243c0 .26.022.51.076.748a9.284 9.284 0 01-6.761-3.431 3.285 3.285 0 001.008 4.384 3.24 3.24 0 01-1.482-.404v.036a3.295 3.295 0 002.628 3.223 3.274 3.274 0 01-.86.108 2.9 2.9 0 01-.621-.056 3.311 3.311 0 003.065 2.285 6.59 6.59 0 01-4.067 1.399c-.269 0-.527-.012-.785-.045A9.234 9.234 0 0012.032 22c6.036 0 9.336-5 9.336-9.334 0-.145-.005-.285-.012-.424A6.544 6.544 0 0023 10.539z" fill="#FDB1D0"/></symbol><symbol viewBox="0 0 6.35 6.35" id="toggler" xmlns="http://www.w3.org/2000/svg"><path d="M1.297.53a.265.265 0 00.025.529h3.705a.265.265 0 100-.53H1.322a.265.265 0 00-.025 0z" style="line-height:normal;font-variant-ligatures:normal;font-variant-position:normal;font-variant-caps:normal;font-variant-numeric:normal;font-variant-alternates:normal;font-feature-settings:normal;text-indent:0;text-align:start;text-decoration-line:none;text-decoration-style:solid;text-decoration-color:#000;text-transform:none;text-orientation:mixed;white-space:normal;shape-padding:0;isolation:auto;mix-blend-mode:normal;solid-color:#000;solid-opacity:1" color="#000" font-weight="400" font-family="sans-serif" overflow="visible" fill="#00001d" stroke-width=".529" stroke-linecap="round" stroke-linejoin="round" stroke-dashoffset="204.094" paint-order="stroke fill markers"/><path d="M1.322 2.91a.265.265 0 100 .53h3.705a.265.265 0 100-.53z" style="line-height:normal;font-variant-ligatures:normal;font-variant-position:normal;font-variant-caps:normal;font-variant-numeric:normal;font-variant-alternates:normal;font-feature-settings:normal;text-indent:0;text-align:start;text-decoration-line:none;text-decoration-style:solid;text-decoration-color:#000;text-transform:none;text-orientation:mixed;white-space:normal;shape-padding:0;isolation:auto;mix-blend-mode:normal;solid-color:#000;solid-opacity:1" color="#000" font-weight="400" font-family="sans-serif" overflow="visible" fill="#ff2876" stroke-width=".529" stroke-linecap="round" stroke-linejoin="round" stroke-dashoffset="204.094" paint-order="stroke fill markers"/><path d="M1.322 5.291a.265.265 0 100 .53h3.705a.265.265 0 100-.53z" style="line-height:normal;font-variant-ligatures:normal;font-variant-position:normal;font-variant-caps:normal;font-variant-numeric:normal;font-variant-alternates:normal;font-feature-settings:normal;text-indent:0;text-align:start;text-decoration-line:none;text-decoration-style:solid;text-decoration-color:#000;text-transform:none;text-orientation:mixed;white-space:normal;shape-padding:0;isolation:auto;mix-blend-mode:normal;solid-color:#000;solid-opacity:1" color="#000" font-weight="400" font-family="sans-serif" overflow="visible" fill="#00001d" stroke-width=".529" stroke-linecap="round" stroke-linejoin="round" stroke-dashoffset="204.094" paint-order="stroke fill markers"/></symbol></svg>