<?xml version="1.0" encoding="utf-8"?><svg xmlns="http://www.w3.org/2000/svg" xmlns:xlink="http://www.w3.org/1999/xlink"><symbol viewBox="0 0 18 18" id="account" xmlns="http://www.w3.org/2000/svg"><path d="M9 .667A8.336 8.336 0 00.667 9c0 4.6 3.733 8.333 8.333 8.333S17.333 13.6 17.333 9 13.6.667 9 .667zm0 2.5c1.383 0 2.5 1.116 2.5 2.5 0 1.383-1.117 2.5-2.5 2.5a2.497 2.497 0 01-2.5-2.5c0-1.384 1.117-2.5 2.5-2.5zM9 15a6 6 0 01-5-2.683c.025-1.659 3.333-2.567 5-2.567 1.658 0 4.975.908 5 2.567A6 6 0 019 15z"/></symbol><symbol viewBox="0 0 80 80" id="logo" xmlns="http://www.w3.org/2000/svg"><path fill-rule="evenodd" clip-rule="evenodd" d="M40 79c21.54 0 39-17.46 39-39S61.54 1 40 1 1 18.46 1 40s17.46 39 39 39zm40-39c0 22.091-17.909 40-40 40S0 62.091 0 40 17.909 0 40 0s40 17.909 40 40z"/><path fill-rule="evenodd" clip-rule="evenodd" d="M55.932 24.167v-1.502a.566.566 0 00-.003-.017l-.008-.034-.012-.065a1.393 1.393 0 01-.022-.242v-.188l.068-.175c.175-.449.288-.772.353-1.007-.28-.007-.663.01-1.202.04-2.217.127-4.46.64-6.649 1.342h-.002c-4.83 1.537-9.364 3.78-13.695 6.52-1.996 1.286-3.78 2.587-5.095 4.434-.295.428-.368.795-.331 1.066.034.253.181.555.612.847.845.576 1.71 1.12 2.593 1.676l.599.378c1.083.685 2.184 1.395 3.245 2.18 1.902 1.403 3.782 2.914 5.489 4.621 2.494 2.494 2.946 5.72 2.617 8.872-.067.657-.38 1.218-.585 1.586l-.027.048c-1.42 2.603-3.385 4.772-6.092 6.223-.43.23-.845.482-1.288.752-.175.107-.355.216-.541.327-.638.382-1.331.774-2.08 1.073-1.242.497-2.602.735-3.83.83-1.685.139-2.77-1.035-3.219-2.326l-.002-.005c-.722-2.116-.484-4.304 1.098-6.052 2.249-2.535 5.07-4.153 8.33-5.004l.01-.003a3.36 3.36 0 01.797-.074h.646l.277.553.032.066c.008.018.016.035.02.047l.002.002.822.823-1.057.668-.85.533c-.388.242-.74.462-1.036.654l-.016.054-.074.25c-.032.103-.08.243-.148.381a1.407 1.407 0 01-.391.488c-.453.362-.929.718-1.392 1.065l-.365.274c-.586.44-1.143.87-1.65 1.314l-.01.008-.01.008a14.067 14.067 0 00-1.98 2.048c1.842.182 3.543-.424 5.352-1.37a16.023 16.023 0 005.947-5.443l.004-.006.004-.006c.904-1.338.971-3.142.081-4.537-1.656-2.48-4.111-4.08-6.771-5.747l-.008-.005c-.499-.32-1.01-.623-1.539-.937l-.14-.084a44.726 44.726 0 01-1.742-1.074c-1.158-.763-2.306-1.659-3.27-2.87-.761-.945-1.17-1.944-1.268-2.99-.098-1.032.115-2.042.487-3.011l.005-.012c.916-2.29 2.68-3.818 4.436-5.02 4.814-3.36 10.006-6.095 15.62-7.922 2.162-.72 4.391-1.403 6.632-1.906.847-.194 1.82-.308 2.766-.075.992.244 1.872.849 2.52 1.92l.008.012.007.012c.28.494.536.972.7 1.419.163.45.274.974.141 1.523-.137.567-.493.993-.926 1.325-.419.322-.966.6-1.608.868l-1.386.58zM47.39 19.44c-5.51 1.792-10.616 4.48-15.364 7.794-1.702 1.165-3.27 2.553-4.076 4.569a7.302 7.302 0 00-.309.997c-.28 1.226-.153 2.41.608 3.57.098.15.207.3.328.45 1.346 1.691 3.118 2.744 4.885 3.794.526.313 1.051.625 1.565.954 2.358 1.479 4.716 2.993 6.47 5.211.211.268.414.546.607.836.908 1.416 1.021 3.156.435 4.647a5.134 5.134 0 01-.524.997 17.023 17.023 0 01-6.316 5.778c-1.881.985-3.808 1.702-5.958 1.478-1.12-.134-1.388-.627-.716-1.523a15.167 15.167 0 012.195-2.284c.651-.57 1.369-1.108 2.082-1.642.464-.347.925-.693 1.367-1.046.118-.089.178-.295.257-.568.04-.139.085-.295.146-.462.157-.105.337-.221.535-.347a124.86 124.86 0 01.832-.522l.228-.143.006-.004.415-.26.179-.113a.694.694 0 01-.13-.204 2.986 2.986 0 01-.05-.11h-.018c-.176 0-.39.002-.564.046-.454.118-.898.252-1.333.402-2.523.87-4.71 2.276-6.506 4.3-1.299 1.434-1.523 3.226-.895 5.062.358 1.03 1.12 1.747 2.194 1.658 1.165-.09 2.42-.314 3.539-.762.855-.342 1.656-.83 2.45-1.312.452-.275.902-.549 1.357-.793 2.509-1.344 4.345-3.36 5.69-5.823.223-.403.447-.806.492-1.254.011-.11.022-.219.031-.328.162-1.88.008-3.7-.707-5.325l-.006-.014a7.795 7.795 0 00-1.647-2.396c-1.658-1.657-3.494-3.135-5.376-4.524-1.218-.9-2.499-1.707-3.777-2.512a87.528 87.528 0 01-2.628-1.699 3.009 3.009 0 01-.355-.28c-.786-.728-.89-1.688-.433-2.61.07-.143.154-.284.25-.424 1.434-2.016 3.36-3.404 5.376-4.703 4.39-2.778 9.003-5.062 13.93-6.63 2.24-.716 4.57-1.254 6.898-1.388 2.127-.116 2.652-.099 2.15 1.465-.08.247-.185.533-.313.864 0 .037.008.074.017.117.012.062.028.136.028.241.146-.061.283-.121.412-.18a8.236 8.236 0 00.537-.273 4.68 4.68 0 00.142-.084c1.291-.793 1.035-1.566.118-3.18-1.03-1.703-2.643-1.747-4.21-1.39-2.195.494-4.39 1.165-6.54 1.882zm8.986 1.144v0zm-.445 2.081z"/></symbol><symbol viewBox="0 0 15 15" id="search" xmlns="http://www.w3.org/2000/svg"><path d="M10.417 9.167h-.659l-.233-.225a5.393 5.393 0 001.308-3.525 5.416 5.416 0 10-5.416 5.416 5.393 5.393 0 003.525-1.308l.225.233v.659l4.166 4.158 1.242-1.242-4.158-4.166zm-5 0a3.745 3.745 0 01-3.75-3.75 3.745 3.745 0 013.75-3.75 3.745 3.745 0 013.75 3.75 3.745 3.745 0 01-3.75 3.75z"/></symbol><symbol viewBox="0 0 18 18" id="shopping-cart" xmlns="http://www.w3.org/2000/svg"><path d="M5.833 14c-.916 0-1.658.75-1.658 1.667 0 .916.742 1.666 1.658 1.666.917 0 1.667-.75 1.667-1.666C7.5 14.75 6.75 14 5.833 14zM.833.667v1.666H2.5l3 6.325L4.375 10.7a1.612 1.612 0 00-.208.8c0 .917.75 1.667 1.666 1.667h10V11.5h-9.65a.206.206 0 01-.208-.208l.025-.1.75-1.359h6.208c.625 0 1.175-.341 1.459-.858L17.4 3.567a.836.836 0 00-.733-1.233H4.342L3.558.666H.833zM14.167 14c-.917 0-1.659.75-1.659 1.667 0 .916.742 1.666 1.659 1.666.916 0 1.666-.75 1.666-1.666 0-.917-.75-1.667-1.666-1.667z"/></symbol><symbol viewBox="0 0 18 16" id="wishlist" xmlns="http://www.w3.org/2000/svg"><path d="M12.75.5A4.99 4.99 0 009 2.242 4.99 4.99 0 005.25.5C2.683.5.667 2.517.667 5.083c0 3.15 2.833 5.717 7.125 9.617L9 15.792l1.208-1.1c4.292-3.892 7.125-6.459 7.125-9.609C17.333 2.517 15.317.5 12.75.5zM9.083 13.458L9 13.542l-.083-.084C4.95 9.867 2.333 7.492 2.333 5.083c0-1.666 1.25-2.916 2.917-2.916 1.283 0 2.533.825 2.975 1.966h1.558c.434-1.141 1.684-1.966 2.967-1.966 1.667 0 2.917 1.25 2.917 2.916 0 2.409-2.617 4.784-6.584 8.375z"/></symbol></svg>