<svg width="20" height="20" viewBox="0 0 20 20" fill="none" xmlns="http://www.w3.org/2000/svg">
<path d="M10 1.66669C5.40002 1.66669 1.66669 5.40002 1.66669 10C1.66669 14.6 5.40002 18.3334 10 18.3334C14.6 18.3334 18.3334 14.6 18.3334 10C18.3334 5.40002 14.6 1.66669 10 1.66669ZM10 4.16669C11.3834 4.16669 12.5 5.28335 12.5 6.66669C12.5 8.05002 11.3834 9.16669 10 9.16669C8.61669 9.16669 7.50002 8.05002 7.50002 6.66669C7.50002 5.28335 8.61669 4.16669 10 4.16669ZM10 16C7.91669 16 6.07502 14.9334 5.00002 13.3167C5.02502 11.6584 8.33335 10.75 10 10.75C11.6584 10.75 14.975 11.6584 15 13.3167C13.925 14.9334 12.0834 16 10 16Z" fill="#FDB1D0"/>
</svg>
