<svg width="20" height="20" viewBox="0 0 20 20" fill="none" xmlns="http://www.w3.org/2000/svg">
<path d="M5.83337 15C4.91671 15 4.17504 15.75 4.17504 16.6667C4.17504 17.5834 4.91671 18.3334 5.83337 18.3334C6.75004 18.3334 7.50004 17.5834 7.50004 16.6667C7.50004 15.75 6.75004 15 5.83337 15ZM0.833374 1.66669V3.33335H2.50004L5.50004 9.65835L4.37504 11.7C4.24171 11.9334 4.16671 12.2084 4.16671 12.5C4.16671 13.4167 4.91671 14.1667 5.83337 14.1667H15.8334V12.5H6.18337C6.06671 12.5 5.97504 12.4084 5.97504 12.2917L6.00004 12.1917L6.75004 10.8334H12.9584C13.5834 10.8334 14.1334 10.4917 14.4167 9.97502L17.4 4.56669C17.4667 4.45002 17.5 4.30835 17.5 4.16669C17.5 3.70835 17.125 3.33335 16.6667 3.33335H4.34171L3.55837 1.66669H0.833374ZM14.1667 15C13.25 15 12.5084 15.75 12.5084 16.6667C12.5084 17.5834 13.25 18.3334 14.1667 18.3334C15.0834 18.3334 15.8334 17.5834 15.8334 16.6667C15.8334 15.75 15.0834 15 14.1667 15Z" fill="#FDB1D0"/>
</svg>
