<svg width="19" height="19" viewBox="0 0 19 19" fill="none" xmlns="http://www.w3.org/2000/svg">
<path d="M12.789 10.7097L12.6425 10.5629H12.4351H12.279C12.9823 9.52946 13.3925 8.2829 13.3925 6.94626C13.3925 3.38595 10.5066 0.5 6.94626 0.5C3.38595 0.5 0.5 3.38595 0.5 6.94626C0.5 10.5066 3.38595 13.3925 6.94626 13.3925C8.2829 13.3925 9.52946 12.9823 10.5629 12.279V12.4351V12.6425L10.7097 12.789L15.2837 17.3539L15.6373 17.7068L15.9905 17.3536L17.3536 15.9905L17.7068 15.6373L17.3539 15.2837L12.789 10.7097ZM6.94626 10.5629C4.94452 10.5629 3.32962 8.94799 3.32962 6.94626C3.32962 4.94452 4.94452 3.32962 6.94626 3.32962C8.94799 3.32962 10.5629 4.94452 10.5629 6.94626C10.5629 8.94799 8.94799 10.5629 6.94626 10.5629Z" fill="#FDB1D0" stroke="black"/>
</svg>
